HIERARCHY
ROOT root
{
	OFFSET 0.000000 0.000000 0.000000
	CHANNELS 6 Xposition Yposition Zposition Zrotation Yrotation Xrotation
	JOINT lhip
	{
		OFFSET 0.058581 -0.082280 -0.017664
		CHANNELS 3 Zrotation Yrotation Xrotation
		JOINT lknee
		{
			OFFSET 0.043451 -0.386469 0.008037
			CHANNELS 3 Zrotation Yrotation Xrotation
			JOINT lankle
			{
				OFFSET -0.014790 -0.426874 -0.037428
				CHANNELS 3 Zrotation Yrotation Xrotation
				JOINT ltoe
				{
					OFFSET 0.041054 -0.060286 0.122042
					CHANNELS 3 Zrotation Yrotation Xrotation
					End Site
					{
						OFFSET 0.000000 0.000000 0.000000
					}
				}
			}
		}
	}
	JOINT rhip
	{
		OFFSET -0.060310 -0.090513 -0.013543
		CHANNELS 3 Zrotation Yrotation Xrotation
		JOINT rknee
		{
			OFFSET -0.043257 -0.383688 -0.004843
			CHANNELS 3 Zrotation Yrotation Xrotation
			JOINT rankle
			{
				OFFSET 0.019056 -0.420046 -0.034562
				CHANNELS 3 Zrotation Yrotation Xrotation
				JOINT rtoe
				{
					OFFSET -0.034840 -0.062106 0.130323
					CHANNELS 3 Zrotation Yrotation Xrotation
					End Site
					{
						OFFSET 0.000000 0.000000 0.000000
					}
				}
			}
		}
	}
	JOINT lowerback
	{
		OFFSET 0.004439 0.124404 -0.038385
		CHANNELS 3 Zrotation Yrotation Xrotation
		JOINT upperback
		{
			OFFSET 0.004488 0.137956 0.026820
			CHANNELS 3 Zrotation Yrotation Xrotation
			JOINT chest
			{
				OFFSET -0.002265 0.056032 0.002855
				CHANNELS 3 Zrotation Yrotation Xrotation
				JOINT lowerneck
				{
					OFFSET -0.013390 0.211636 -0.033468
					CHANNELS 3 Zrotation Yrotation Xrotation
					JOINT upperneck
					{
						OFFSET 0.010113 0.088937 0.050410
						CHANNELS 3 Zrotation Yrotation Xrotation
						End Site
						{
							OFFSET 0.000000 0.000000 0.000000
						}
					}
				}
				JOINT lclavicle
				{
					OFFSET 0.071702 0.114000 -0.018898
					CHANNELS 3 Zrotation Yrotation Xrotation
					JOINT lshoulder
					{
						OFFSET 0.122921 0.045205 -0.019046
						CHANNELS 3 Zrotation Yrotation Xrotation
						JOINT lelbow
						{
							OFFSET 0.255332 -0.015649 -0.022946
							CHANNELS 3 Zrotation Yrotation Xrotation
							JOINT lwrist
							{
								OFFSET 0.265709 0.012698 -0.007375
								CHANNELS 3 Zrotation Yrotation Xrotation
								End Site
								{
									OFFSET 0.000000 0.000000 0.000000
								}
							}
						}
					}
				}
				JOINT rclavicle
				{
					OFFSET -0.082954 0.112472 -0.023707
					CHANNELS 3 Zrotation Yrotation Xrotation
					JOINT rshoulder
					{
						OFFSET -0.113228 0.046853 -0.008472
						CHANNELS 3 Zrotation Yrotation Xrotation
						JOINT relbow
						{
							OFFSET -0.260127 -0.014369 -0.031269
							CHANNELS 3 Zrotation Yrotation Xrotation
							JOINT rwrist
							{
								OFFSET -0.269108 0.006794 -0.006027
								CHANNELS 3 Zrotation Yrotation Xrotation
								End Site
								{
									OFFSET 0.000000 0.000000 0.000000
								}
							}
						}
					}
				}
			}
		}
	}
}
MOTION
Frames: 10
Frame Time: 0.033333
0.022620 -1.882017 0.962383 -93.346654 -0.282561 87.563980 1.849644 -8.104203 -29.979231 -2.782397 -0.566103 10.380668 2.310368 12.002939 -5.713634 0.000000 -0.000000 0.000000 9.543077 5.425319 5.422419 3.459051 2.625788 30.879683 3.612986 -12.488033 -27.497999 0.000000 -0.000000 0.000000 -4.323295 5.015687 10.744464 3.430547 -2.335946 -5.761788 0.206314 1.562532 2.395219 7.215853 -0.132469 6.949045 1.707448 -11.404459 17.141016 -23.145276 5.900229 -0.472229 -50.828487 -2.949054 7.416720 10.804136 -18.042902 -2.319700 9.053643 -5.100189 -5.167315 23.789044 -1.584383 -0.220774 49.815538 5.441557 13.492720 -7.976067 27.040616 5.517507 -5.092704 5.912154 -7.538079 
-0.010720 -1.885646 0.962302 -93.414259 -0.694785 88.044558 0.653578 -8.011698 -30.899090 -3.219788 -1.638271 15.129724 2.167212 12.510901 -3.358569 0.000000 -0.000000 0.000000 8.370577 4.427587 7.502084 3.331498 3.407867 30.306182 3.373026 -11.334104 -24.064445 0.000000 -0.000000 0.000000 -4.794224 5.371739 9.299216 3.612401 -2.810796 -5.206094 0.384796 0.797442 1.737735 6.332419 -1.655222 8.494038 1.672056 -9.765963 16.755947 -23.326781 5.867590 0.113494 -51.028580 -2.524964 7.151034 11.087386 -18.134919 -1.837003 6.168534 -4.405016 -7.116308 22.937898 -1.665139 0.733226 51.221134 4.732208 13.752773 -8.973695 25.655801 4.915513 -4.061090 5.437001 -7.930680 
-0.044930 -1.887871 0.965457 -93.400098 -1.081557 88.101714 0.657811 -9.367750 -30.649421 -3.900089 -0.047500 18.861967 3.255106 13.034847 -4.195645 0.000000 -0.000000 0.000000 7.220095 3.568234 9.706861 3.504637 3.949702 30.202579 4.638755 -10.149254 -19.534798 0.000000 -0.000000 0.000000 -5.635774 5.899864 8.515706 3.817944 -3.419280 -5.042807 0.496733 0.758106 1.667255 6.540926 -2.065039 8.463167 2.333986 -10.313567 16.634856 -23.012296 5.877906 0.199169 -51.229798 -3.116204 6.974565 11.580249 -17.689675 -2.306357 8.133249 -4.676607 -6.363376 23.301043 -2.644407 0.533950 51.689173 3.561158 13.458993 -9.195212 24.531114 4.941480 -3.958268 5.191206 -7.385981 
-0.094537 -1.891630 0.973875 -92.754730 -1.681322 87.167643 -0.827868 -10.685970 -25.979082 -4.888653 0.489279 19.352440 5.059937 13.400299 -7.512855 0.000000 -0.000000 0.000000 5.802727 2.877912 11.069584 3.218872 3.372109 34.208607 6.891029 -9.733037 -8.975933 0.000000 -0.000000 0.000000 -6.301827 5.759351 9.168649 3.804646 -3.712913 -5.285546 0.509547 0.590395 1.989520 7.113735 -2.884743 8.030712 2.834110 -10.626980 16.706891 -23.014112 5.473095 -0.143063 -50.686673 -4.421314 6.591090 11.488066 -17.820288 -3.138370 7.592620 -5.345680 -4.720487 23.753155 -3.557723 -0.372364 52.151383 1.701391 13.325581 -9.181000 22.850622 3.875122 -1.791268 4.897231 -6.265251 
-0.110038 -1.892943 0.977180 -92.650010 -1.682586 86.669100 -1.701892 -9.850214 -23.644500 -5.069454 -0.650515 18.565478 5.719779 13.582690 -8.408521 0.000000 -0.000000 0.000000 5.137845 2.333197 10.531422 3.585590 3.094331 36.931694 8.260802 -8.131773 -3.946143 0.000000 -0.000000 0.000000 -6.101040 5.428647 9.680588 3.718828 -3.651802 -5.246090 0.500166 0.636740 1.964804 6.850427 -3.597767 8.480410 3.221490 -10.191602 16.318456 -23.202731 5.111047 -0.272161 -50.370922 -4.651375 6.429938 11.318673 -18.218249 -3.711069 8.791225 -5.639682 -4.270522 23.623498 -3.533606 -0.372217 52.304061 1.261931 13.041160 -9.077823 22.379870 3.447682 -1.580740 4.925698 -5.585257 
-0.139493 -1.895597 0.982955 -92.559245 -1.724519 85.689630 -3.353365 -7.697389 -18.917521 -5.123187 -2.951490 16.627942 6.682428 13.754291 -9.944919 0.000000 -0.000000 0.000000 3.894900 2.081554 8.314297 3.331579 1.082281 43.892007 9.595359 -8.159622 4.726599 0.000000 -0.000000 0.000000 -5.534423 4.279275 10.926060 3.424958 -3.273612 -5.381757 0.263160 0.715123 2.187252 6.404894 -5.021832 8.690887 3.565414 -9.418572 15.812252 -23.312508 4.550553 -0.317396 -49.694983 -5.377237 5.811614 11.053064 -19.510085 -3.996394 8.306794 -6.214653 -3.490470 23.037784 -3.247720 -0.698330 52.844053 0.478328 12.850100 -9.160552 21.826830 2.918849 0.509494 4.690471 -4.312759 
-0.167307 -1.897718 0.987817 -92.515521 -1.946281 84.663865 -4.491865 -6.469025 -14.320004 -5.261550 -4.355512 14.541768 7.082523 14.048134 -11.015450 0.000000 -0.000000 0.000000 3.201667 3.505167 4.564092 1.907081 -1.998285 52.201949 7.942754 -11.305272 9.163312 0.000000 -0.000000 0.000000 -5.523511 2.805490 12.408872 3.324964 -2.506311 -5.461290 0.291616 0.680982 2.412229 6.088392 -6.251032 8.827361 3.669180 -8.742416 15.204197 -23.874533 3.791056 -0.223956 -48.583955 -6.381120 5.834592 10.965014 -20.615491 -4.899286 11.032775 -7.248615 -2.980379 22.993282 -2.880073 -1.039521 52.579412 -0.180368 13.480162 -9.625236 22.034371 1.426204 -0.164057 4.942289 -3.147534 
-0.190801 -1.895190 0.990936 -93.309534 -0.896071 84.602923 -3.327205 -4.193008 -12.039954 -5.629194 -5.387351 14.072717 7.013264 13.701594 -12.774252 0.000000 -0.000000 0.000000 -1.119287 -0.212840 -1.106067 2.026542 -6.946218 58.638396 9.338115 -9.911306 7.784090 0.000000 -0.000000 0.000000 -4.394530 2.146230 13.335451 3.294869 -2.367683 -5.200839 0.409245 0.532035 1.941626 6.116247 -6.044818 8.867277 3.685151 -8.806568 14.766253 -23.969669 3.040062 -0.191526 -47.937037 -6.960468 5.495172 11.503042 -21.779835 -4.848555 11.396027 -7.146253 -2.205350 23.448514 -2.277139 -0.685132 51.750628 0.079353 12.308404 -9.647948 22.886870 0.944606 0.035844 5.215080 -1.871535 
-0.212497 -1.893325 0.993377 -93.707495 -0.176467 84.922808 -2.440156 -3.137760 -10.388975 -6.083714 -6.169340 13.508045 6.513426 14.089696 -13.745135 0.000000 -0.000000 0.000000 -2.416074 -0.933069 -7.455401 1.403107 -10.619285 62.744586 8.435076 -9.980508 2.046990 0.000000 -0.000000 0.000000 -3.629610 1.095790 14.217346 3.332864 -2.066972 -5.302509 0.520055 0.058296 1.542631 6.296596 -5.521164 8.735630 3.408477 -9.314813 14.297795 -23.798392 2.300213 -0.112962 -47.756478 -7.736680 5.490334 12.047415 -22.467384 -5.077316 11.745330 -6.909551 -2.310982 23.579997 -2.004374 -0.456538 51.349039 0.694163 11.559536 -9.990963 23.716960 0.670095 -0.711620 5.326476 -1.468668 
-0.232857 -1.890817 0.995216 -94.260541 0.580665 85.370237 -1.561597 -1.359076 -9.054276 -6.160771 -6.601932 13.179665 5.688608 13.755291 -15.208260 0.000000 -0.000000 0.000000 -3.168484 -1.911148 -13.520405 1.011758 -13.967857 63.393754 8.109588 -9.755765 -4.739659 0.000000 -0.000000 0.000000 -2.856946 0.117331 15.056555 3.361063 -1.837229 -5.747101 0.696495 -0.416800 1.352204 6.617884 -4.874649 8.527479 3.239444 -10.038229 14.078592 -23.121653 1.637674 0.160166 -48.163547 -8.620870 5.256693 12.520350 -23.103907 -5.348119 9.460526 -6.562149 -3.060835 23.232890 -1.669539 -0.258247 51.620932 1.287830 10.544861 -10.656172 24.624292 -0.228673 0.188911 5.394213 -2.638351 
